<?xml version="1.0" encoding="UTF-8" standalone="no"?>
<!-- Created with Inkscape (http://www.inkscape.org/) -->

<svg
   xmlns:dc="http://purl.org/dc/elements/1.1/"
   xmlns:cc="http://creativecommons.org/ns#"
   xmlns:rdf="http://www.w3.org/1999/02/22-rdf-syntax-ns#"
   xmlns:svg="http://www.w3.org/2000/svg"
   xmlns="http://www.w3.org/2000/svg"
   xmlns:sodipodi="http://sodipodi.sourceforge.net/DTD/sodipodi-0.dtd"
   xmlns:inkscape="http://www.inkscape.org/namespaces/inkscape"
   width="1000"
   height="1000"
   viewBox="0 0 264.58332 264.58334"
   version="1.1"
   id="svg8"
   inkscape:version="0.92.0 r15299"
   sodipodi:docname="fish-plain.svg">
  <defs
     id="defs2" />
  <sodipodi:namedview
     id="base"
     pagecolor="#ffffff"
     bordercolor="#666666"
     borderopacity="1.0"
     inkscape:pageopacity="0.0"
     inkscape:pageshadow="2"
     inkscape:zoom="0.7"
     inkscape:cx="269.13889"
     inkscape:cy="556.26695"
     inkscape:document-units="mm"
     inkscape:current-layer="layer1"
     showgrid="true"
     units="px"
     inkscape:window-width="1920"
     inkscape:window-height="1017"
     inkscape:window-x="-8"
     inkscape:window-y="89"
     inkscape:window-maximized="1">
    <inkscape:grid
       type="xygrid"
       id="grid4533" />
  </sodipodi:namedview>
  <metadata
     id="metadata5">
    <rdf:RDF>
      <cc:Work
         rdf:about="">
        <dc:format>image/svg+xml</dc:format>
        <dc:type
           rdf:resource="http://purl.org/dc/dcmitype/StillImage" />
        <dc:title></dc:title>
      </cc:Work>
    </rdf:RDF>
  </metadata>
  <g
     inkscape:label="Ebene 1"
     inkscape:groupmode="layer"
     id="layer1"
     transform="translate(0,-32.416653)">
    <g
       id="g4546"
       transform="translate(14.07961,6.8980663)">
      <path
         sodipodi:nodetypes="cccccc"
         inkscape:connector-curvature="0"
         id="path4496"
         d="m 46.207589,181.15028 c -0.614668,0.92624 0.271145,2.50894 11.589678,8.65595 9.284611,7.8112 16.691103,10.21419 23.562107,11.75476 -0.283429,6.04125 1.05049,10.21508 1.984376,14.55209 2.279031,-2.56451 2.272812,6.25929 5.953125,8.40997 15.462735,-18.68681 2.733094,-20.58881 5.197173,-23.05654"
         style="fill:none;fill-rule:evenodd;stroke:#000000;stroke-width:0.26458332px;stroke-linecap:butt;stroke-linejoin:miter;stroke-opacity:1" />
      <path
         sodipodi:nodetypes="cccccccc"
         inkscape:connector-curvature="0"
         id="path4498"
         d="m 94.494047,201.46651 9.827383,-0.0945 c -0.58636,4.83425 0.0136,6.82138 0.66145,8.69345 1.90737,-9.43047 4.63813,1.31212 6.99257,2.83482 -1.48145,-8.98387 1.26996,-5.01796 7.46503,-0.66145 0.15992,-0.93859 -2.33586,-4.58331 3.77977,0.0945 16.64753,7.69613 28.11074,-19.78267 16.91442,-22.86757 l -8.06979,-2.83481"
         style="fill:none;fill-rule:evenodd;stroke:#000000;stroke-width:0.26458332px;stroke-linecap:butt;stroke-linejoin:miter;stroke-opacity:1" />
      <path
         sodipodi:nodetypes="cccccccccccccccccccsccc"
         inkscape:connector-curvature="0"
         id="path4500"
         d="m 132.06488,186.63094 c 3.52095,-2.32585 10.44721,-2.55612 17.14122,-2.92932 6.89482,2.22434 12.2453,4.7378 18.99331,6.33109 21.93294,3.45781 14.60893,-35.63731 1.5119,-29.76561 l -20.88319,5.76413 c -9.08357,0.43885 -15.21825,-0.85693 -20.03273,-2.92931 -0.94689,-2.29993 6.20167,-2.64684 9.63838,-3.21279 13.16654,-4.82976 -6.91824,-23.57041 -11.52826,-21.92263 -1.84056,1.05555 -8.57867,3.94341 -7.9375,1.13393 -2.0446,0.83935 -4.51648,3.3878 -5.38617,-0.47247 -1.43567,0.94381 -2.85681,1.82585 -3.30729,-1.41741 -2.10895,1.82265 -3.4342,1.29416 -3.77976,-2.17336 -2.07939,2.8254 -4.4094,2.47785 -4.63021,-1.51191 -2.533358,3.63731 -4.27988,1.64787 -4.913689,-1.88988 -2.970796,5.18124 -5.963324,0.83766 -6.142111,-1.22842 -2.847975,7.99115 -8.00303,7.59892 -6.425597,2.74032 -1.558575,3.52214 -2.978328,10.56854 -5.953125,6.04763 -0.257421,2.69361 1.303402,9.51959 -1.41741,6.61458 l 0.755952,3.49628 c -8.247863,2.44843 -15.957513,10.79102 -21.607453,19.4385 -1.283717,1.96479 -5.707228,4.82683 -8.81963,9.38218 l 3.212798,2.74033 -4.346726,0.28348"
         style="fill:none;fill-rule:evenodd;stroke:#000000;stroke-width:0.26458332px;stroke-linecap:butt;stroke-linejoin:miter;stroke-opacity:1" />
      <path
         sodipodi:nodetypes="ccccc"
         inkscape:connector-curvature="0"
         id="path4502"
         d="m 81.926339,182.56769 c 3.032901,-2.58284 7.158075,-6.58308 9.165921,-7.74851 20.39255,-11.3068 15.11561,16.17518 3.96875,15.59152 -3.55436,-0.31006 -6.899438,-0.41084 -11.90625,-2.17336 0.0995,-1.97471 0.152197,-3.94162 -1.228421,-5.66965 z"
         style="fill:none;fill-rule:evenodd;stroke:#000000;stroke-width:0.26458332px;stroke-linecap:butt;stroke-linejoin:miter;stroke-opacity:1" />
      <path
         sodipodi:nodetypes="ccc"
         inkscape:connector-curvature="0"
         id="path4504"
         d="m 76.540178,170.94493 c 1.625161,-0.44909 3.605796,3.9273 2.362351,5.00818 -4.102438,-0.38141 -5.386172,-2.65278 -2.362351,-5.00818 z"
         style="fill:#000000;fill-opacity:1;fill-rule:evenodd;stroke:none;stroke-width:0.26458332;stroke-linecap:butt;stroke-linejoin:miter;stroke-miterlimit:4;stroke-dasharray:none;stroke-opacity:1" />
      <circle
         r="2.126116"
         cy="174.96094"
         cx="59.86198"
         id="path4508"
         style="fill:#000000;fill-opacity:1;stroke:none;stroke-width:0.33072916;stroke-miterlimit:4;stroke-dasharray:none;stroke-opacity:1" />
      <ellipse
         ry="4.5734677"
         rx="4.6679616"
         cy="175.10268"
         cx="59.909225"
         id="path4508-4"
         style="fill:none;fill-opacity:1;stroke:#000000;stroke-width:0.25952402;stroke-miterlimit:4;stroke-dasharray:none;stroke-opacity:1" />
      <path
         sodipodi:nodetypes="cc"
         inkscape:connector-curvature="0"
         id="path4525"
         d="m 77.7686,149.30579 c 32.56089,-8.58829 42.48021,7.17766 51.02679,13.79613"
         style="fill:none;fill-rule:evenodd;stroke:#000000;stroke-width:0.26458332px;stroke-linecap:butt;stroke-linejoin:miter;stroke-opacity:1" />
      <path
         sodipodi:nodetypes="cc"
         inkscape:connector-curvature="0"
         id="path4527"
         d="m 81.359374,201.56099 c 4.891208,-3.21725 8.873147,0.2871 13.134673,-0.0945"
         style="fill:none;fill-rule:evenodd;stroke:#000000;stroke-width:0.26458332px;stroke-linecap:butt;stroke-linejoin:miter;stroke-opacity:1" />
      <path
         sodipodi:nodetypes="cc"
         inkscape:connector-curvature="0"
         id="path4529"
         d="m 104.32143,201.37201 c 10.18415,-1.03948 23.26378,-12.59322 27.74345,-14.74106"
         style="fill:none;fill-rule:evenodd;stroke:#000000;stroke-width:0.26458332px;stroke-linecap:butt;stroke-linejoin:miter;stroke-opacity:1" />
      <path
         sodipodi:nodetypes="cc"
         inkscape:connector-curvature="0"
         id="path4531"
         d="m 67.941218,170.56695 c 40.267512,-24.81459 45.512832,4.19476 84.194192,4.25223"
         style="fill:none;fill-rule:evenodd;stroke:#000000;stroke-width:0.26458332px;stroke-linecap:butt;stroke-linejoin:miter;stroke-opacity:1" />
    </g>
  </g>
</svg>
