<?xml version="1.0" encoding="UTF-8" standalone="no"?>
<!-- Created with Inkscape (http://www.inkscape.org/) -->

<svg
   xmlns:dc="http://purl.org/dc/elements/1.1/"
   xmlns:cc="http://creativecommons.org/ns#"
   xmlns:rdf="http://www.w3.org/1999/02/22-rdf-syntax-ns#"
   xmlns:svg="http://www.w3.org/2000/svg"
   xmlns="http://www.w3.org/2000/svg"
   xmlns:sodipodi="http://sodipodi.sourceforge.net/DTD/sodipodi-0.dtd"
   xmlns:inkscape="http://www.inkscape.org/namespaces/inkscape"
   width="1000"
   height="1000"
   viewBox="0 0 264.58332 264.58334"
   version="1.1"
   id="svg8"
   inkscape:version="0.92.0 r15299"
   sodipodi:docname="logo.svg"
   inkscape:export-filename="D:\development\github.com\af-wendenschloss\af-wendenschloss.de\src\static\images\logo.png"
   inkscape:export-xdpi="49.151997"
   inkscape:export-ydpi="49.151997">
  <defs
     id="defs2">
    <path
       style="fill:none;fill-opacity:1;stroke:#000000;stroke-width:3.96874976;stroke-miterlimit:4;stroke-dasharray:none;stroke-opacity:1"
       d="m 227.54167,165.08629 a 95.249997,95.249997 0 0 1 -95.25,95.25 95.249997,95.249997 0 0 1 -95.249998,-95.25 95.249997,95.249997 0 0 1 95.249998,-95.250001 95.249997,95.249997 0 0 1 95.25,95.250001 z"
       id="path4548-1-7"
       inkscape:connector-curvature="0" />
    <path
       style="fill:none;fill-opacity:1;stroke:#000000;stroke-width:3.96874976;stroke-miterlimit:4;stroke-dasharray:none;stroke-opacity:1"
       d="m 227.54167,165.08629 a 95.249997,95.249997 0 0 1 -95.25,95.25 95.249997,95.249997 0 0 1 -95.249998,-95.25 95.249997,95.249997 0 0 1 95.249998,-95.250001 95.249997,95.249997 0 0 1 95.25,95.250001 z"
       id="path4548-1-0"
       inkscape:connector-curvature="0" />
    <path
       style="fill:none;fill-opacity:1;stroke:#000000;stroke-width:0.27182391;stroke-miterlimit:4;stroke-dasharray:none;stroke-opacity:1"
       d="M 230.14828,181.22241 A 99.178064,99.178064 0 0 1 116.15555,262.94289 99.178064,99.178064 0 0 1 34.435069,148.95017 99.178064,99.178064 0 0 1 148.42779,67.229684 99.178064,99.178064 0 0 1 230.14828,181.22241 Z"
       id="path4548-1-5"
       inkscape:connector-curvature="0" />
  </defs>
  <sodipodi:namedview
     id="base"
     pagecolor="#ffffff"
     bordercolor="#666666"
     borderopacity="1.0"
     inkscape:pageopacity="0.0"
     inkscape:pageshadow="2"
     inkscape:zoom="0.7"
     inkscape:cx="380.47523"
     inkscape:cy="535.38317"
     inkscape:document-units="mm"
     inkscape:current-layer="layer1"
     showgrid="false"
     units="px"
     inkscape:window-width="1920"
     inkscape:window-height="1017"
     inkscape:window-x="-8"
     inkscape:window-y="89"
     inkscape:window-maximized="1"
     gridtolerance="50"
     showguides="false"
     inkscape:guide-bbox="true"
     inkscape:pagecheckerboard="true">
    <inkscape:grid
       type="xygrid"
       id="grid4533" />
    <sodipodi:guide
       position="76.729166,273.65476"
       orientation="1,0"
       id="guide4588"
       inkscape:locked="false" />
  </sodipodi:namedview>
  <metadata
     id="metadata5">
    <rdf:RDF>
      <cc:Work
         rdf:about="">
        <dc:format>image/svg+xml</dc:format>
        <dc:type
           rdf:resource="http://purl.org/dc/dcmitype/StillImage" />
        <dc:title></dc:title>
      </cc:Work>
    </rdf:RDF>
  </metadata>
  <g
     inkscape:label="Ebene 1"
     inkscape:groupmode="layer"
     id="layer1"
     transform="translate(0,-32.416653)">
    <path
       style="fill:none;fill-rule:evenodd;stroke:#000000;stroke-width:2.64583325;stroke-linecap:butt;stroke-linejoin:miter;stroke-miterlimit:4;stroke-dasharray:none;stroke-opacity:1"
       d="m 73.677553,206.14708 c -0.515017,10.97752 2.375578,19.51736 4.072536,27.39811 4.141214,-4.65995 4.129914,11.37372 10.817389,15.28171 28.097242,-33.95569 2.570937,-38.69182 7.31567,-43.17591"
       id="path4496"
       inkscape:connector-curvature="0"
       sodipodi:nodetypes="cccc" />
    <path
       style="fill:none;fill-rule:evenodd;stroke:#000000;stroke-width:2.64583325;stroke-linecap:butt;stroke-linejoin:miter;stroke-miterlimit:4;stroke-dasharray:none;stroke-opacity:1"
       d="m 115.81148,205.78736 c -1.06547,8.78429 0.0817,13.36701 1.25894,16.76874 3.46588,-17.13605 8.42792,2.38424 12.70616,5.15113 -2.69193,-16.32453 2.30764,-9.1181 13.56466,-1.20191 0.29059,-1.70551 -4.24447,-8.32831 6.8682,0.17171 30.25013,13.98459 50.72072,-36.03467 30.37596,-41.64023 l -16.36446,-6.09605"
       id="path4498"
       inkscape:connector-curvature="0"
       sodipodi:nodetypes="ccccccc" />
    <path
       style="fill:none;fill-rule:evenodd;stroke:#000000;stroke-width:2.64583325;stroke-linecap:butt;stroke-linejoin:miter;stroke-miterlimit:4;stroke-dasharray:none;stroke-opacity:1"
       d="m 159.15095,137.91478 c -1.72059,-4.17919 12.45806,-5.50541 18.70289,-6.5338 23.92484,-8.77612 -12.57109,-42.829648 -20.94793,-39.835477 -3.34447,1.918034 -15.58825,7.165547 -14.42319,2.060458 -3.71523,1.525178 -8.20687,6.155951 -9.78718,-0.858523 -2.60874,1.714992 -5.19109,3.317741 -6.00965,-2.575567 -3.83216,3.311926 -6.24027,2.35161 -6.86818,-3.9492 -3.77845,5.134018 -8.0123,4.502487 -8.41353,-2.747283 -4.60335,6.609335 -7.77694,2.994335 -8.92863,-3.434089 -5.398221,9.4148 -9.932619,1.522107 -11.160799,-2.232155 -5.175038,14.520671 -10.206388,12.543328 -11.675914,4.979419 -2.832077,6.40006 -5.411902,19.204027 -10.817388,10.989113 -0.467759,4.894543 2.368404,17.297994 -2.575568,12.019314 l 1.373636,7.487"
       id="path4500"
       inkscape:connector-curvature="0"
       sodipodi:nodetypes="cccccccccccccc" />
    <circle
       style="fill:#000000;fill-opacity:1;stroke:none;stroke-width:2.64583349;stroke-miterlimit:4;stroke-dasharray:none;stroke-opacity:1"
       id="path4508"
       cx="35.081505"
       cy="158.76788"
       r="3.863353" />
    <path
       style="fill:none;fill-opacity:1;stroke:#000000;stroke-width:10;stroke-miterlimit:4;stroke-dasharray:none;stroke-opacity:1"
       d="m 739.49063,423.43357 c 13.70062,35.90268 15.30084,74.94079 6.46386,108.48442 45.7555,13.22053 92.67674,43.38379 139.33653,49.40037 40.19523,4.8017 71.43827,-17.84781 82.2207,-59.60547 13.70135,-53.06203 -8.6592,-125.3569 -44.41406,-143.59766 -8.39176,-4.28114 -20.75,-5.26014 -29.64844,-2.34961 -54.56704,19.39045 -88.51648,31.17682 -153.95859,47.66795 z"
       id="path4549"
       transform="matrix(0.26458333,0,0,0.26458333,0,32.416653)"
       inkscape:connector-curvature="0"
       sodipodi:nodetypes="cccsccc" />
    <path
       style="fill:#000000;fill-opacity:1;stroke:none;stroke-width:0.53993249;stroke-miterlimit:4;stroke-dasharray:none;stroke-opacity:1"
       d="M 376.75195 286.00977 C 358.49998 285.89194 339.65662 286.75393 326.00586 288.63281 C 301.93162 291.94632 269.14319 298.63347 254.46289 303.22461 C 209.38306 317.32297 160.52481 359.85338 116.38672 423.41797 C 105.64046 438.894 101.58483 443.33691 85.886719 456.81641 C 68.483903 471.75968 57.144167 483.09648 49.265625 493.42578 L 45.5625 498.27734 L 50.427734 502.38477 C 53.103156 504.64315 58.980888 508.62927 63.490234 511.24414 C 67.999577 513.85901 71.696385 516.42699 71.705078 516.95117 C 71.731762 518.59459 57.699007 520.99805 48.078125 520.99805 C 41.833351 520.99805 38.863281 521.55425 38.863281 522.72266 C 38.863281 526.05117 56.870901 541.95996 71.763672 551.78711 C 80.037734 557.24683 93.426868 565.24888 101.51758 569.57031 C 109.6083 573.89171 121.80339 581.79849 128.61719 587.14062 C 143.94441 599.15737 173.15091 618.63608 187.43555 626.36914 C 208.83245 637.95249 237.48409 648.93018 264.57812 655.92578 C 272.04242 657.85308 278.40758 659.46145 278.72461 659.5 C 279.04166 659.53863 282.89964 657.84873 287.29688 655.74414 C 299.70124 649.80718 315.15386 649.50503 337.69922 654.75781 L 355.29102 658.85547 L 398.86328 658.42188 C 448.17618 657.92944 455.17822 656.91913 480.95898 646.5918 C 507.69147 635.8833 537.14433 618.35336 593.86328 579.39062 C 624.9759 558.01804 638.11779 550.91648 654.10742 546.83398 C 667.71474 543.35969 694.52376 540.09893 724.32031 538.29492 L 746.20703 536.96875 C 747.32491 533.49785 748.32514 530.0834 749.2168 526.72461 C 750.10845 523.36582 750.8898 520.06431 751.57031 516.82031 C 752.25083 513.57632 752.82998 510.3902 753.31445 507.26367 C 753.79893 504.13714 754.18866 501.06889 754.49219 498.0625 C 755.04811 492.55615 755.24307 487.31133 755.26367 482.2207 L 752.79102 482.17773 C 701.01704 481.29529 646.8937 470.56068 592.85156 450.45703 C 581.62259 446.27986 554.43553 435.12741 532.43555 425.67383 C 472.37798 399.86668 450.34068 392.37051 419.57812 387.28516 C 399.27401 383.92867 365.76238 384.22437 344.57812 387.94531 C 304.77488 394.93664 258.12162 413.44226 209.61133 441.48242 C 199.41586 447.37569 190.57267 451.88709 189.95898 451.50781 C 189.34528 451.12854 187.91214 449.01849 186.77539 446.82031 L 184.70898 442.82422 L 205 431.24805 C 253.77741 403.42007 294.06064 387.03136 335.84766 378.01367 C 355.90446 373.68539 398.31864 372.63271 419.40625 375.93945 C 452.26293 381.09171 475.92787 389.04836 539.63672 416.36523 C 594.85237 440.04038 613.58126 446.86535 651.7207 457.21094 C 677.08806 464.09198 713.26772 469.26614 744.93555 470.54102 L 754.78711 470.9375 C 754.6515 468.97799 754.66017 466.87318 754.45703 464.98828 C 753.91836 459.99012 753.15306 455.25563 752.22266 450.79688 C 751.29225 446.33812 750.19552 442.1538 748.99414 438.25586 C 747.79276 434.35792 746.48638 430.74542 745.13477 427.42969 C 743.78315 424.11395 742.38696 421.09494 741.00586 418.38281 L 712.43555 417.5957 C 672.74268 416.50024 643.09872 411.51744 616.00586 401.38672 C 604.81876 397.20354 604.12163 396.68176 575.29102 370.96094 C 562.71959 359.74549 546.74605 346.16586 539.79297 340.7832 C 504.08607 313.1411 468.50064 297.31541 423.95312 289.26562 C 412.66458 287.22576 395.00392 286.12759 376.75195 286.00977 z M 130.70703 446.66602 C 150.71378 445.38149 170.10045 463.68732 164.51953 486.95117 C 162.29242 496.23486 152.60963 506.6053 143.69727 509.25195 C 121.41598 515.86877 100.35547 501.09829 100.35547 478.85547 C 100.35547 469.65432 104.07637 461.62317 111.39648 455.02344 C 117.30134 449.6997 124.03812 447.09419 130.70703 446.66602 z M 248.95117 449.57031 C 256.7766 449.57031 266.40098 465.40709 265.7207 477.16406 C 265.33157 483.88909 264.96349 484.60143 261.7207 484.91211 C 259.75641 485.10022 254.75161 484.06672 250.59961 482.61523 C 238.01606 478.21613 232.92299 471.28773 236.0918 462.88281 C 238.05584 457.67341 245.88346 449.57031 248.95117 449.57031 z M 406.34375 457.66016 C 423.17195 458.32463 434.76397 466.85648 440.39062 483.14258 C 443.48791 492.10739 442.79769 512.64385 438.97266 525.30859 C 429.99586 555.03076 410.43884 577.27558 388.19141 583.07031 C 378.99559 585.46551 378.66426 585.474 359.57812 583.71289 C 340.37284 581.94082 321.20515 578.52512 306.00586 574.16797 L 292.43555 570.27734 L 291.60352 557.13867 C 290.95451 546.88149 289.95937 542.43139 287.06445 536.85156 L 283.35547 529.70508 L 305.56055 509.99414 C 333.50896 485.18581 344.76824 476.68047 357.91992 470.43945 C 376.99984 461.38525 393.25515 457.14334 406.34375 457.66016 z "
       id="path4526"
       transform="matrix(0.26458333,0,0,0.26458333,0,32.416653)" />
  </g>
</svg>
