<?xml version="1.0" standalone="no"?>
<!DOCTYPE svg PUBLIC "-//W3C//DTD SVG 20010904//EN"
 "http://www.w3.org/TR/2001/REC-SVG-20010904/DTD/svg10.dtd">
<svg version="1.0" xmlns="http://www.w3.org/2000/svg"
 width="700.000000pt" height="700.000000pt" viewBox="0 0 700.000000 700.000000"
 preserveAspectRatio="xMidYMid meet">
<metadata>
Created by potrace 1.11, written by Peter Selinger 2001-2013
</metadata>
<g transform="translate(0.000000,700.000000) scale(0.100000,-0.100000)"
fill="#000000" stroke="none">
<path d="M2396 5834 c-36 -94 -97 -214 -127 -249 -59 -67 -95 -41 -134 99
l-23 81 -14 -35 c-9 -19 -41 -101 -72 -183 -56 -143 -93 -207 -121 -207 -8 0
-35 27 -61 60 -26 33 -49 60 -52 60 -3 0 -2 -88 1 -195 4 -107 3 -195 0 -195
-4 0 -26 18 -49 41 l-41 40 23 -123 c13 -68 23 -132 24 -143 0 -17 -18 -29
-87 -60 -274 -123 -536 -367 -840 -781 -83 -113 -129 -163 -240 -264 -129
-116 -259 -252 -257 -268 0 -4 39 -33 85 -65 46 -32 85 -62 87 -66 4 -12 -33
-20 -132 -27 -47 -4 -86 -10 -86 -14 0 -37 153 -157 352 -276 90 -53 237 -150
328 -214 344 -244 501 -323 830 -419 l125 -37 7 -139 c3 -77 13 -176 22 -220
35 -177 91 -405 100 -405 5 0 17 7 27 16 10 9 22 13 27 10 5 -3 27 -52 47
-108 63 -173 99 -236 165 -288 l39 -31 72 93 c166 214 254 377 294 548 36 158
4 290 -105 430 -27 36 -50 71 -50 78 0 9 25 12 93 12 50 0 156 3 235 7 l143 6
-6 -94 c-8 -112 6 -230 42 -349 14 -47 28 -89 30 -94 3 -4 18 41 33 101 26
104 46 153 62 153 12 0 48 -52 111 -159 63 -108 159 -215 165 -185 2 8 -1 52
-7 96 -13 96 -14 188 -3 188 17 0 200 -129 361 -254 11 -9 12 0 6 52 -4 35 -3
62 2 62 5 0 36 -20 69 -44 141 -102 350 -136 534 -86 53 14 161 68 210 104
288 215 451 635 354 911 -12 34 -35 68 -73 105 -53 52 -65 59 -231 119 -242
89 -246 91 -229 102 29 18 137 49 224 63 106 18 410 46 495 46 70 0 126 -19
417 -143 354 -151 508 -196 668 -197 51 0 117 7 150 16 184 47 323 199 387
421 20 68 23 100 22 253 0 155 -3 187 -27 281 -48 195 -139 368 -239 453 -65
56 -123 80 -204 84 -67 4 -84 -1 -325 -82 -285 -97 -471 -155 -699 -216 l-155
-42 -180 6 c-201 8 -355 26 -484 56 -111 26 -233 67 -257 85 -19 15 -19 15 1
30 32 25 133 52 302 80 173 29 238 52 300 108 64 59 88 117 87 217 0 73 -5 96
-34 164 -121 287 -493 631 -705 653 -42 4 -62 -1 -126 -30 -97 -45 -201 -77
-246 -77 -34 0 -35 1 -31 35 2 19 1 35 -3 35 -4 0 -45 -20 -90 -45 -122 -65
-143 -60 -174 43 l-7 23 -43 -26 c-70 -40 -87 -31 -101 54 -8 48 -15 50 -56
16 -39 -33 -76 -42 -95 -23 -8 8 -20 47 -26 86 -7 39 -15 73 -19 77 -3 3 -25
-16 -48 -44 -23 -27 -55 -55 -72 -62 -29 -12 -33 -11 -54 14 -13 16 -25 46
-29 74 -3 27 -9 61 -13 78 l-8 29 -44 -56 c-91 -118 -133 -101 -175 70 l-21
85 -37 -61 c-44 -71 -79 -102 -116 -102 -45 0 -79 46 -142 189 l-15 34 -18
-49z m133 -234 c42 -17 94 -5 135 30 l33 30 18 -39 c40 -89 107 -116 179 -72
l34 21 10 -30 c27 -75 108 -103 178 -59 l34 20 15 -39 c23 -55 70 -80 122 -64
33 11 39 10 48 -5 6 -9 20 -28 33 -41 23 -24 50 -26 108 -7 15 5 23 0 32 -19
6 -14 25 -32 42 -41 37 -19 73 -14 143 22 l48 24 26 -21 c14 -11 38 -20 53
-20 49 0 180 39 267 80 47 22 92 40 99 40 34 0 134 -48 216 -102 98 -66 260
-220 326 -310 182 -248 203 -439 59 -536 -59 -40 -85 -48 -232 -72 -212 -34
-306 -62 -357 -107 -15 -14 -36 2 -230 167 -311 266 -472 365 -726 450 -232
77 -288 85 -632 84 -290 0 -312 -1 -455 -27 -82 -16 -190 -37 -238 -49 -49
-11 -93 -16 -97 -12 -4 5 -11 27 -15 50 -5 36 -4 41 19 52 32 14 39 53 34 187
-2 58 -3 105 -3 105 0 0 14 -4 31 -9 74 -21 136 57 208 263 6 18 10 16 37 -17
73 -89 178 -38 256 123 l28 59 42 -48 c23 -27 56 -54 72 -61z m535 -1254 c165
-39 349 -105 691 -249 368 -154 496 -202 676 -256 216 -66 448 -108 695 -126
l92 -7 5 -36 c4 -19 4 -38 2 -42 -10 -17 -335 18 -523 56 -269 55 -444 112
-857 284 -522 216 -654 263 -855 307 -68 14 -129 18 -305 18 -191 -1 -234 -4
-325 -24 -247 -53 -475 -143 -800 -315 -120 -64 -222 -116 -227 -116 -5 0 -16
13 -26 29 -13 22 -14 31 -4 39 6 5 89 51 182 103 284 155 514 253 741 314 170
47 239 54 494 51 212 -3 245 -6 344 -30z m3396 -32 c195 -106 344 -525 301
-845 -40 -304 -206 -488 -456 -506 -144 -10 -309 35 -620 168 -93 40 -226 94
-295 120 -99 38 -125 52 -123 66 1 10 7 51 13 91 23 164 7 384 -40 536 -12 37
-20 69 -18 70 2 1 59 17 128 35 249 65 737 220 930 295 35 13 129 -2 180 -30z
m-5430 -465 c167 -84 173 -302 11 -397 -60 -36 -155 -37 -218 -4 -134 70 -163
242 -60 350 75 79 175 98 267 51z m784 -48 c35 -50 46 -85 46 -141 0 -59 -14
-67 -84 -46 -61 19 -113 54 -126 87 -15 36 6 84 54 126 32 29 39 31 61 21 13
-6 35 -27 49 -47z m1141 -29 c121 -62 165 -193 132 -387 -34 -193 -163 -377
-313 -447 -62 -29 -78 -32 -154 -31 -117 1 -295 27 -447 66 l-128 32 -7 89
c-6 62 -16 106 -33 145 -25 54 -25 56 -7 71 11 8 83 71 161 139 191 168 239
204 356 261 178 88 345 111 440 62z m1632 -773 c120 -45 229 -87 243 -94 39
-20 77 -65 102 -120 20 -43 23 -66 23 -160 -1 -123 -17 -199 -67 -310 -99
-219 -273 -394 -456 -457 -53 -18 -88 -23 -172 -23 -146 0 -215 21 -338 102
-80 52 -103 63 -132 61 -24 -2 -38 -10 -46 -26 -11 -22 -12 -21 -95 41 -194
145 -249 147 -264 10 l-7 -65 -48 84 c-61 104 -98 141 -141 140 -33 -1 -65
-23 -74 -53 -16 -51 -25 -7 -25 126 0 108 3 147 13 149 6 2 41 9 77 16 195 36
428 160 909 482 146 98 269 178 273 178 4 0 105 -36 225 -81z m-2207 -584
c104 -22 110 -24 110 -44 0 -10 29 -57 64 -105 80 -107 108 -177 108 -271 -1
-149 -53 -285 -186 -485 -89 -135 -137 -191 -152 -179 -25 20 -71 112 -109
214 -55 148 -70 173 -108 183 l-32 8 -37 170 c-41 183 -61 345 -56 438 3 59 3
59 43 73 89 32 199 32 355 -2z"/>
<path d="M903 3752 c-30 -4 -73 -57 -73 -88 0 -53 45 -103 92 -104 54 0 83 23
102 83 6 20 -16 81 -33 92 -20 12 -65 21 -88 17z"/>
</g>
</svg>
