<?xml version="1.0" standalone="no"?>
<!DOCTYPE svg PUBLIC "-//W3C//DTD SVG 20010904//EN"
 "http://www.w3.org/TR/2001/REC-SVG-20010904/DTD/svg10.dtd">
<svg version="1.0" xmlns="http://www.w3.org/2000/svg"
 width="700.000000pt" height="700.000000pt" viewBox="0 0 700.000000 700.000000"
 preserveAspectRatio="xMidYMid meet">
<metadata>
Created by potrace 1.11, written by Peter Selinger 2001-2013
</metadata>
<g transform="translate(0.000000,700.000000) scale(0.100000,-0.100000)"
fill="#000000" stroke="none">
<path d="M2386 5819 c-58 -150 -119 -252 -157 -264 -38 -12 -64 29 -98 150
-17 64 -20 68 -29 45 -17 -44 -83 -214 -94 -245 -20 -53 -66 -141 -81 -153
-22 -19 -40 -6 -88 59 -30 42 -45 56 -49 45 -5 -16 -4 -125 3 -293 4 -103 5
-102 -56 -40 -16 16 -30 27 -32 25 -2 -2 8 -61 21 -133 13 -71 23 -134 23
-140 1 -5 -30 -23 -68 -38 -262 -106 -592 -410 -856 -787 -61 -88 -129 -159
-325 -343 -63 -59 -130 -127 -148 -150 l-32 -42 29 -25 c15 -14 56 -44 91 -67
60 -40 62 -43 39 -51 -13 -5 -64 -12 -113 -16 -50 -4 -92 -9 -95 -12 -11 -11
143 -146 238 -208 55 -36 102 -66 104 -66 13 0 234 -142 355 -228 262 -185
361 -244 537 -317 92 -38 308 -109 368 -121 35 -6 39 -19 42 -116 3 -86 5
-115 21 -223 5 -31 41 -200 58 -270 1 -5 11 -47 21 -92 10 -46 21 -83 25 -83
4 0 15 9 25 20 10 11 21 20 25 20 8 0 25 -37 80 -181 22 -58 55 -127 74 -153
36 -51 103 -103 115 -90 153 180 326 470 347 584 3 14 9 42 15 63 13 50 9 179
-7 232 -18 63 -51 121 -105 192 -27 36 -49 68 -49 74 0 5 72 9 173 10 94 0
195 2 222 3 69 4 74 1 69 -42 -12 -119 -3 -239 27 -347 43 -156 54 -185 57
-153 4 57 53 227 72 251 18 21 18 21 64 -50 25 -39 46 -74 46 -78 0 -15 93
-144 122 -169 77 -68 71 -65 64 -26 -9 51 -14 95 -22 188 -5 66 -4 82 7 82 21
0 72 -33 219 -144 74 -56 140 -105 146 -109 7 -4 8 13 3 56 -4 34 -6 63 -5 65
2 1 33 -18 70 -44 120 -82 212 -109 366 -108 99 0 126 4 190 27 165 60 310
179 415 341 211 326 216 701 11 821 -32 19 -303 126 -351 139 -5 1 -26 9 -45
18 l-35 15 80 26 c81 26 224 52 350 62 39 3 90 8 115 10 180 17 231 16 288 -3
80 -28 178 -68 382 -155 306 -130 474 -176 626 -172 327 10 533 260 548 667
12 333 -153 719 -350 818 -83 41 -201 46 -279 11 -80 -36 -490 -170 -705 -230
-102 -28 -210 -59 -240 -69 -38 -12 -88 -17 -160 -16 -110 0 -350 13 -359 18
-3 2 -35 7 -70 10 -118 13 -368 80 -414 111 -17 12 -17 14 5 29 26 19 128 52
185 61 21 3 48 7 60 9 11 3 38 7 59 10 172 27 231 50 301 118 23 23 52 64 64
92 39 90 16 232 -58 365 -160 287 -541 596 -707 574 -16 -2 -54 -17 -85 -32
-75 -38 -175 -71 -232 -78 l-47 -6 5 43 c3 23 1 41 -3 38 -5 -2 -53 -26 -107
-53 -113 -56 -123 -54 -147 16 -8 24 -16 46 -17 48 -1 2 -27 -9 -57 -25 -61
-32 -74 -28 -82 22 -2 16 -8 42 -12 57 l-7 28 -50 -36 c-28 -19 -58 -35 -68
-35 -23 0 -43 47 -52 120 -4 30 -9 58 -12 62 -2 5 -29 -19 -59 -51 -29 -32
-63 -61 -74 -64 -35 -9 -60 23 -71 93 -20 124 -14 118 -65 56 -47 -57 -79 -82
-104 -81 -22 0 -57 71 -75 152 -9 40 -18 73 -20 73 -3 0 -21 -26 -41 -57 -46
-72 -78 -103 -108 -103 -49 0 -82 44 -148 199 l-14 33 -28 -73z m44 -127 c0
-12 62 -77 87 -90 45 -24 109 -12 154 30 l25 24 20 -44 c34 -79 99 -107 165
-73 23 12 43 21 44 19 1 -2 10 -18 19 -36 21 -40 68 -70 104 -67 36 4 78 21
87 36 5 7 15 -3 26 -29 31 -66 87 -90 142 -61 17 9 22 9 26 -2 2 -8 17 -26 32
-41 28 -29 79 -37 108 -19 10 6 25 -2 51 -30 45 -48 79 -50 157 -13 52 24 56
25 88 10 68 -32 178 -10 342 70 28 14 59 27 69 28 23 4 122 -32 156 -55 14
-11 31 -19 37 -19 6 0 11 -4 11 -10 0 -5 5 -10 11 -10 11 0 122 -88 179 -142
238 -225 359 -482 290 -617 -12 -24 -34 -54 -48 -68 -39 -36 -120 -71 -177
-77 -27 -3 -61 -8 -75 -11 -14 -3 -63 -12 -110 -20 -136 -24 -220 -54 -250
-89 -11 -15 -16 -14 -49 11 -20 15 -38 30 -41 33 -8 11 -218 189 -309 264
-170 138 -350 238 -546 305 -230 78 -372 98 -673 96 -185 -2 -238 -6 -387 -32
-49 -8 -106 -17 -125 -20 -19 -2 -82 -15 -140 -28 -111 -25 -120 -24 -120 22
0 12 -3 28 -6 36 -3 9 3 16 16 20 35 9 47 57 43 176 l-3 108 44 -1 c34 -1 50
5 69 22 30 28 75 113 107 200 l23 63 21 -30 c35 -50 91 -65 144 -37 32 17 91
93 123 159 21 42 39 61 39 39z m550 -1331 c109 -23 250 -61 340 -93 135 -48
142 -51 410 -163 140 -59 309 -129 375 -155 228 -90 523 -176 670 -196 28 -3
52 -7 55 -9 3 -2 34 -6 70 -10 36 -4 74 -9 85 -11 11 -2 65 -7 120 -10 55 -3
103 -9 107 -13 3 -3 8 -19 10 -36 l3 -30 -85 1 c-119 0 -205 10 -430 50 -193
35 -556 151 -777 250 -44 20 -302 125 -453 186 -69 27 -134 53 -145 58 -119
51 -343 105 -480 117 -128 11 -351 5 -435 -12 -14 -3 -52 -10 -85 -16 -90 -16
-365 -110 -500 -172 -66 -30 -181 -87 -255 -127 -74 -40 -160 -86 -190 -102
l-55 -29 -17 22 c-33 39 -43 31 232 182 60 33 208 107 214 107 3 0 37 16 77
35 39 19 80 37 92 41 12 3 36 12 52 20 98 43 362 110 500 127 76 9 435 0 495
-12z m3467 -42 c83 -40 181 -166 233 -300 136 -354 105 -721 -78 -916 -63 -67
-126 -103 -232 -130 -8 -2 -46 -5 -85 -7 -141 -5 -301 41 -638 183 -128 54
-261 109 -297 121 -85 30 -91 36 -80 66 6 14 9 28 8 32 -1 4 2 34 7 67 21 147
-2 399 -49 533 l-15 41 52 15 c29 8 88 24 132 36 221 60 470 139 730 231 66
23 134 45 150 49 45 10 115 1 162 -21z m-5396 -485 c119 -80 139 -240 41 -339
-48 -49 -94 -67 -163 -67 -131 0 -221 91 -221 223 0 66 26 124 74 164 53 45
86 56 159 52 53 -3 76 -10 110 -33z m742 -11 c50 -53 80 -148 61 -197 -12 -33
-111 -11 -168 36 -53 43 -49 95 12 161 14 15 35 27 47 27 12 0 33 -12 48 -27z
m1134 -43 c164 -54 217 -279 122 -518 -69 -175 -197 -306 -334 -343 -40 -11
-138 -13 -205 -4 -19 3 -53 7 -75 10 -96 12 -126 18 -225 41 -168 40 -165 38
-166 81 -2 75 -15 146 -36 195 l-21 50 44 42 c61 56 172 153 228 199 25 21 57
48 70 59 112 95 293 175 456 201 36 6 103 -1 142 -13z m1608 -764 c39 -15 77
-30 85 -33 8 -3 20 -7 25 -9 26 -6 151 -57 183 -73 118 -61 160 -248 103 -456
-77 -277 -269 -500 -507 -586 -46 -17 -83 -22 -169 -22 -95 -1 -121 3 -190 27
-44 15 -82 31 -85 35 -9 13 -126 87 -158 100 -28 12 -35 11 -57 -3 -14 -9 -25
-23 -25 -31 0 -10 -35 11 -94 54 -111 83 -167 113 -198 107 -13 -3 -26 -5 -29
-5 -16 -2 -39 -73 -39 -117 l0 -49 -21 40 c-69 131 -129 196 -177 192 -13 -1
-37 -16 -52 -34 -16 -18 -32 -28 -35 -23 -7 11 -4 233 3 261 2 10 11 16 20 15
27 -4 152 31 248 69 181 73 346 170 765 451 l228 153 53 -18 c29 -11 85 -31
123 -45z m-2170 -601 c66 -14 120 -25 121 -25 1 0 4 -13 7 -28 3 -16 26 -54
51 -85 25 -30 46 -60 46 -65 0 -5 7 -15 15 -22 24 -20 55 -136 55 -204 -1 -76
-18 -149 -59 -248 -54 -129 -241 -411 -270 -405 -20 3 -78 114 -116 222 -52
146 -66 166 -115 178 -15 4 -26 14 -27 24 -1 10 -15 77 -32 148 -16 72 -32
150 -35 175 -4 25 -9 57 -12 72 -3 15 -7 76 -9 137 l-3 110 57 19 c81 28 184
27 326 -3z"/>
<path d="M885 3748 c-106 -56 -44 -217 71 -187 46 13 69 44 69 95 0 34 -6 49
-26 70 -29 28 -83 39 -114 22z"/>
</g>
</svg>
